<svg width="40" height="40" viewBox="0 0 40 40" fill="none" xmlns="http://www.w3.org/2000/svg">
<circle cx="20" cy="20" r="20" fill="#5CC389"/>
<path d="M23.0674 23.2393C23.0674 22.4606 22.7923 21.8047 22.2422 21.2715C21.7005 20.7383 20.7822 20.2559 19.4873 19.8242C17.6846 19.2741 16.3685 18.5589 15.5391 17.6787C14.7181 16.79 14.3076 15.6644 14.3076 14.3018C14.3076 12.9137 14.7096 11.7754 15.5137 10.8867C16.3262 9.99805 17.4391 9.46908 18.8525 9.2998V6.51953H20.7441V9.3125C22.166 9.50716 23.2705 10.1038 24.0576 11.1025C24.8532 12.1012 25.251 13.4681 25.251 15.2031H22.915C22.915 14.0098 22.6315 13.0618 22.0645 12.3594C21.4974 11.6569 20.7314 11.3057 19.7666 11.3057C18.7594 11.3057 17.9893 11.568 17.4561 12.0928C16.9229 12.609 16.6562 13.3327 16.6562 14.2637C16.6562 15.127 16.9355 15.8167 17.4941 16.333C18.0612 16.8408 18.988 17.3063 20.2744 17.7295C21.5693 18.1442 22.5765 18.6055 23.2959 19.1133C24.0238 19.6126 24.557 20.1966 24.8955 20.8652C25.2425 21.5339 25.416 22.3167 25.416 23.2139C25.416 24.6442 24.9844 25.7952 24.1211 26.667C23.2663 27.5387 22.0645 28.055 20.5156 28.2158V30.6406H18.6367V28.2158C17.0625 28.0719 15.8268 27.5133 14.9297 26.54C14.041 25.5583 13.5967 24.2295 13.5967 22.5537H15.9453C15.9453 23.7301 16.2542 24.6357 16.8721 25.2705C17.4899 25.9053 18.3659 26.2227 19.5 26.2227C20.6087 26.2227 21.4805 25.9561 22.1152 25.4229C22.75 24.8896 23.0674 24.1618 23.0674 23.2393Z" fill="white"/>
</svg>
