<svg width="23" height="23" viewBox="0 0 23 23" fill="none" xmlns="http://www.w3.org/2000/svg">
<path fill-rule="evenodd" clip-rule="evenodd" d="M12.7728 2.08741C12.2755 0.815834 10.4761 0.815834 9.97882 2.08741L8.22689 6.5672C8.01882 7.09925 7.52658 7.46692 6.95735 7.51545L2.25187 7.91666C0.947944 8.02784 0.401724 9.63874 1.36912 10.5201L5.08675 13.907C5.48502 14.2698 5.65811 14.8184 5.5402 15.3441L4.42845 20.301C4.13419 21.613 5.58168 22.6196 6.70922 21.8871L10.5587 19.3865C11.0556 19.0637 11.696 19.0637 12.1929 19.3865L16.0424 21.8871C17.1699 22.6196 18.6174 21.613 18.3231 20.301L17.2114 15.3441C17.0935 14.8184 17.2666 14.2698 17.6648 13.907L21.3825 10.5201C22.3499 9.63874 21.8036 8.02784 20.4997 7.91666L15.7942 7.51545C15.225 7.46692 14.7328 7.09925 14.5247 6.5672L12.7728 2.08741ZM11.8415 4.61686C11.6757 4.193 11.0759 4.193 10.9101 4.61686L9.2214 8.93508C9.15204 9.11244 8.98796 9.23499 8.79822 9.25117L4.36216 9.62941C3.92752 9.66646 3.74545 10.2034 4.06791 10.4972L7.4919 13.6166C7.62466 13.7376 7.68236 13.9204 7.64305 14.0956L6.60498 18.724C6.5069 19.1613 6.98939 19.4969 7.36524 19.2527L11.1034 16.8244C11.2691 16.7168 11.4825 16.7168 11.6482 16.8244L15.3864 19.2527C15.7622 19.4969 16.2447 19.1613 16.1466 18.724L15.1085 14.0956C15.0692 13.9204 15.1269 13.7376 15.2597 13.6166L18.6837 10.4972C19.0061 10.2034 18.8241 9.66646 18.3894 9.62941L13.9534 9.25117C13.7636 9.23499 13.5996 9.11244 13.5302 8.93508L11.8415 4.61686Z" fill="#90CBF9"/>
</svg>
