<svg width="26" height="26" viewBox="0 0 26 26" fill="none" xmlns="http://www.w3.org/2000/svg">
<circle cx="13" cy="13" r="13" fill="#A7B0C1"/>
<path d="M14.6805 8.11112C16.0306 8.11112 17.125 7.0167 17.125 5.66667C17.125 4.31664 16.0306 3.22223 14.6805 3.22223C13.3305 3.22223 12.2361 4.31664 12.2361 5.66667C12.2361 7.0167 13.3305 8.11112 14.6805 8.11112Z" fill="white"/>
<path d="M17.18 18.0294C17.1125 17.984 17.0365 17.9525 16.9567 17.9368C16.8768 17.9212 16.7946 17.9216 16.7149 17.9381C16.6352 17.9546 16.5596 17.9869 16.4926 18.033C16.4255 18.0791 16.3684 18.1381 16.3244 18.2067C15.7337 19.0816 15.01 19.8589 14.1794 20.5106C13.9778 20.6633 13.2261 21.2439 12.9083 21.1217C12.6883 21.0544 12.8167 20.6206 12.8594 20.4372L13.1833 19.4778C13.3178 19.0867 15.6583 12.1444 15.915 11.35C16.2939 10.1889 16.1289 9.04611 14.3994 9.32111C13.9289 9.37 9.1561 9.98722 9.07054 9.99333C8.99029 9.99855 8.91185 10.0195 8.8397 10.055C8.76756 10.0906 8.70311 10.14 8.65006 10.2004C8.597 10.2608 8.55636 10.3311 8.53047 10.4073C8.50458 10.4834 8.49394 10.5639 8.49915 10.6442C8.50437 10.7244 8.52534 10.8029 8.56087 10.875C8.5964 10.9471 8.6458 11.0116 8.70623 11.0646C8.76667 11.1177 8.83696 11.1583 8.9131 11.1842C8.98924 11.2101 9.06973 11.2208 9.14999 11.2156C9.14999 11.2156 10.9833 10.9772 11.185 10.9589C11.2883 10.9488 11.3923 10.9688 11.4845 11.0165C11.5766 11.0642 11.653 11.1376 11.7044 11.2278C11.8152 11.5701 11.8 11.9407 11.6617 12.2728C11.5028 12.8839 8.9911 19.9606 8.91165 20.37C8.82644 20.7126 8.8501 21.0733 8.97934 21.4019C9.10857 21.7304 9.33697 22.0106 9.63276 22.2033C10.188 22.5734 10.849 22.7515 11.515 22.7106C12.1625 22.7026 12.8029 22.5742 13.4033 22.3317C14.925 21.7206 16.5139 20.095 17.3511 18.8178C17.4232 18.688 17.4456 18.5364 17.4141 18.3914C17.3826 18.2463 17.2994 18.1176 17.18 18.0294Z" fill="white"/>
</svg>
